<?xml version="1.0" encoding="UTF-8" standalone="no"?>
<svg width="128" height="128" viewBox="0 0 128 128" xmlns="http://www.w3.org/2000/svg">
    <defs>
        <linearGradient id="boxGradient" x1="0%" y1="0%" x2="100%" y2="100%">
            <stop offset="0%" style="stop-color:#5C6BC0"/>
            <stop offset="100%" style="stop-color:#3F51B5"/>
        </linearGradient>
        <filter id="shadow">
            <feDropShadow dx="0" dy="2" stdDeviation="3" flood-opacity="0.3"/>
        </filter>
    </defs>

    <!-- Background -->
    <rect x="14" y="14" width="100" height="100" rx="24" fill="#1E1E1E" filter="url(#shadow)"/>
    
    <!-- Package box -->
    <path d="M64 28L94 44V84L64 100L34 84V44L64 28Z" fill="url(#boxGradient)" filter="url(#shadow)"/>
    
    <!-- Pawn symbol -->
    <path d="M64 48C58 48 54 52 54 57C54 60 55.5 62.5 58 64L54 74H74L70 64C72.5 62.5 74 60 74 57C74 52 70 48 64 48Z" 
          fill="#FFFFFF" 
          filter="url(#shadow)"/>
    
    <!-- Package reflection -->
    <path d="M64 28L94 44L64 60L34 44L64 28Z" 
          fill="#7986CB" 
          fill-opacity="0.6"/>
</svg> 